<svg width="16" height="17" viewBox="0 0 16 17" fill="none" xmlns="http://www.w3.org/2000/svg">
<g clip-path="url(#clip0_1553_1983)">
<path d="M7.00033 13.8332C7.00033 14.0984 7.10568 14.3527 7.29322 14.5403C7.48075 14.7278 7.73511 14.8332 8.00033 14.8332C8.26554 14.8332 8.5199 14.7278 8.70743 14.5403C8.89497 14.3527 9.00033 14.0984 9.00033 13.8332V9.49984H13.3337C13.5989 9.49984 13.8532 9.39448 14.0408 9.20694C14.2283 9.01941 14.3337 8.76505 14.3337 8.49984C14.3337 8.23462 14.2283 7.98027 14.0408 7.79273C13.8532 7.60519 13.5989 7.49984 13.3337 7.49984H9.00033V3.1665C9.00033 2.90129 8.89497 2.64693 8.70743 2.4594C8.5199 2.27186 8.26554 2.1665 8.00033 2.1665C7.73511 2.1665 7.48075 2.27186 7.29322 2.4594C7.10568 2.64693 7.00033 2.90129 7.00033 3.1665V7.49984H2.66699C2.40178 7.49984 2.14742 7.60519 1.95989 7.79273C1.77235 7.98027 1.66699 8.23462 1.66699 8.49984C1.66699 8.76505 1.77235 9.01941 1.95989 9.20694C2.14742 9.39448 2.40178 9.49984 2.66699 9.49984H7.00033V13.8332Z" fill="#292929"/>
</g>
<defs>
<clipPath id="clip0_1553_1983">
<rect width="16" height="16" fill="white" transform="translate(0 0.5)"/>
</clipPath>
</defs>
</svg>
