<svg width="16" height="16" viewBox="0 0 16 16" fill="none" xmlns="http://www.w3.org/2000/svg">
<path d="M6.99935 13.3327C6.99935 13.5979 7.10471 13.8523 7.29224 14.0398C7.47978 14.2273 7.73413 14.3327 7.99935 14.3327C8.26456 14.3327 8.51892 14.2273 8.70646 14.0398C8.89399 13.8523 8.99935 13.5979 8.99935 13.3327V8.99935H13.3327C13.5979 8.99935 13.8523 8.89399 14.0398 8.70646C14.2273 8.51892 14.3327 8.26456 14.3327 7.99935C14.3327 7.73413 14.2273 7.47978 14.0398 7.29224C13.8523 7.10471 13.5979 6.99935 13.3327 6.99935H8.99935V2.66602C8.99935 2.4008 8.89399 2.14645 8.70646 1.95891C8.51892 1.77137 8.26456 1.66602 7.99935 1.66602C7.73413 1.66602 7.47978 1.77137 7.29224 1.95891C7.10471 2.14645 6.99935 2.4008 6.99935 2.66602V6.99935H2.66602C2.4008 6.99935 2.14645 7.10471 1.95891 7.29224C1.77137 7.47978 1.66602 7.73413 1.66602 7.99935C1.66602 8.26456 1.77137 8.51892 1.95891 8.70646C2.14645 8.89399 2.4008 8.99935 2.66602 8.99935H6.99935V13.3327Z" fill="white"/>
</svg>
