<svg width="24" height="24" viewBox="0 0 24 24" fill="none" xmlns="http://www.w3.org/2000/svg">
<path fill-rule="evenodd" clip-rule="evenodd" d="M14.9294 12.1079C15.2399 11.8141 15.4144 11.4155 15.4144 11C15.4144 10.5845 15.2399 10.1859 14.9294 9.89208L10.2425 5.45882C10.0107 5.23963 9.71535 5.09041 9.39387 5.03002C9.07239 4.96963 8.73919 5.00079 8.43644 5.11957C8.13369 5.23834 7.87498 5.43939 7.69306 5.69727C7.51114 5.95516 7.41417 6.25829 7.41443 6.56831V15.4317C7.41417 15.7417 7.51114 16.0448 7.69306 16.3027C7.87498 16.5606 8.13369 16.7617 8.43644 16.8804C8.73919 16.9992 9.07239 17.0304 9.39387 16.97C9.71535 16.9096 10.0107 16.7604 10.2425 16.5412L14.9294 12.1079Z" fill="#429DFF"/>
</svg>
