<svg width="24" height="24" viewBox="0 0 24 24" fill="none" xmlns="http://www.w3.org/2000/svg">
<g clip-path="url(#clip0_1719_18)">
<path d="M5.46967 5.46967C5.76256 5.17678 6.23732 5.17678 6.53022 5.46967L12.5302 11.4697C12.8231 11.7626 12.8231 12.2373 12.5302 12.5302L6.53022 18.5302C6.23732 18.8231 5.76256 18.8231 5.46967 18.5302C5.17678 18.2373 5.17678 17.7626 5.46967 17.4697L10.9394 11.9999L5.46967 6.53022C5.17678 6.23732 5.17678 5.76256 5.46967 5.46967Z" fill="#292929"/>
<path d="M16.25 18V5C16.25 4.58579 16.5858 4.25 17 4.25C17.4142 4.25 17.75 4.58579 17.75 5V18C17.75 18.4142 17.4142 18.75 17 18.75C16.5858 18.75 16.25 18.4142 16.25 18Z" fill="#292929"/>
</g>
<defs>
<clipPath id="clip0_1719_18">
<rect width="24" height="24" fill="white"/>
</clipPath>
</defs>
</svg>
