<svg width="24" height="24" viewBox="0 0 24 24" fill="none" xmlns="http://www.w3.org/2000/svg">
<path fill-rule="evenodd" clip-rule="evenodd" d="M10.8921 8.39913C11.1859 8.08854 11.5845 7.91406 12 7.91406C12.4155 7.91406 12.8141 8.08854 13.1079 8.39913L17.5412 13.086C17.7604 13.3178 17.9096 13.6131 17.97 13.9346C18.0304 14.2561 17.9992 14.5893 17.8804 14.8921C17.7617 15.1948 17.5606 15.4535 17.3027 15.6354C17.0448 15.8174 16.7417 15.9143 16.4317 15.9141L7.56831 15.9141C7.25829 15.9143 6.95516 15.8174 6.69727 15.6354C6.43939 15.4535 6.23834 15.1948 6.11957 14.8921C6.00079 14.5893 5.96963 14.2561 6.03002 13.9346C6.09041 13.6131 6.23963 13.3178 6.45882 13.086L10.8921 8.39913Z" fill="#292929"/>
</svg>
