<svg width="15" height="15" viewBox="0 0 15 15" fill="none" xmlns="http://www.w3.org/2000/svg">
<path fill-rule="evenodd" clip-rule="evenodd" d="M1.66667 0C1.22464 0 0.800716 0.175595 0.488155 0.488155C0.175595 0.800716 0 1.22464 0 1.66667V13.3333C0 13.7754 0.175595 14.1993 0.488155 14.5118C0.800716 14.8244 1.22464 15 1.66667 15H13.3333C13.7754 15 14.1993 14.8244 14.5118 14.5118C14.8244 14.1993 15 13.7754 15 13.3333V1.66667C15 1.22464 14.8244 0.800716 14.5118 0.488155C14.1993 0.175595 13.7754 0 13.3333 0H1.66667ZM11.625 5.66333C11.7814 5.50708 11.8693 5.2951 11.8693 5.07404C11.8694 4.85299 11.7817 4.64095 11.6254 4.48458C11.4692 4.32822 11.2572 4.24033 11.0361 4.24025C10.8151 4.24017 10.603 4.32791 10.4467 4.48417L6.32167 8.60917L4.55417 6.84167C4.4768 6.76424 4.38493 6.70281 4.28382 6.66089C4.18271 6.61897 4.07434 6.59737 3.96488 6.59733C3.74382 6.59725 3.53178 6.68499 3.37542 6.84125C3.21905 6.99751 3.13116 7.20948 3.13108 7.43054C3.131 7.6516 3.21874 7.86363 3.375 8.02L5.67333 10.3183C5.75846 10.4035 5.85953 10.4711 5.97077 10.5172C6.08202 10.5632 6.20125 10.587 6.32167 10.587C6.44208 10.587 6.56132 10.5632 6.67256 10.5172C6.7838 10.4711 6.88487 10.4035 6.97 10.3183L11.625 5.66333Z" fill="#00886F"/>
</svg>
