<svg width="32" height="33" viewBox="0 0 32 33" fill="none" xmlns="http://www.w3.org/2000/svg">
<g clip-path="url(#clip0_1349_2487)">
<path d="M25.3268 8.45036C25.307 8.37147 25.2322 8.20498 24.9596 7.95817C24.5958 7.62881 23.9817 7.26072 23.0742 6.92041C21.2633 6.24132 18.718 5.83317 16 5.83317C13.282 5.83317 10.7367 6.24132 8.92578 6.92041C8.01832 7.26072 7.40417 7.62881 7.04036 7.95817C6.67626 8.28787 6.66667 8.47492 6.66667 8.49984L6.67318 8.54932C6.69299 8.6282 6.7678 8.79469 7.04036 9.0415C7.40417 9.37087 8.01832 9.73895 8.92578 10.0793C10.7367 10.7583 13.282 11.1665 16 11.1665C18.718 11.1665 21.2633 10.7583 23.0742 10.0793C23.9817 9.73895 24.5958 9.37087 24.9596 9.0415C25.3237 8.71181 25.3333 8.52476 25.3333 8.49984L25.3268 8.45036ZM27.9935 8.69255C27.93 9.64169 27.4039 10.4273 26.75 11.0194C26.0518 11.6515 25.1033 12.1668 24.0104 12.5767C21.8206 13.3978 18.9399 13.8332 16 13.8332C13.0601 13.8332 10.1794 13.3978 7.98958 12.5767C6.89672 12.1668 5.94818 11.6515 5.25 11.0194C4.59607 10.4273 4.06998 9.64169 4.00651 8.69255L4 8.49984C4 7.46392 4.55232 6.61196 5.25 5.98031C5.94818 5.34822 6.89672 4.83284 7.98958 4.42301C10.1794 3.60185 13.0601 3.1665 16 3.1665C18.9399 3.1665 21.8206 3.60185 24.0104 4.42301C25.1033 4.83284 26.0518 5.34822 26.75 5.98031C27.4477 6.61196 28 7.46392 28 8.49984L27.9935 8.69255Z" fill="#004D71"/>
<path d="M4 16.4998V8.49984C4 7.76346 4.59695 7.1665 5.33333 7.1665C6.06971 7.1665 6.66667 7.76346 6.66667 8.49984V16.4998L6.67318 16.5493C6.69299 16.6282 6.7678 16.7947 7.04036 17.0415C7.40417 17.3709 8.01832 17.739 8.92578 18.0793C10.7367 18.7584 13.282 19.1665 16 19.1665C18.718 19.1665 21.2633 18.7584 23.0742 18.0793C23.9817 17.739 24.5958 17.3709 24.9596 17.0415C25.2322 16.7947 25.307 16.6282 25.3268 16.5493L25.3333 16.4998V8.49984C25.3333 7.76346 25.9303 7.1665 26.6667 7.1665C27.403 7.1665 28 7.76346 28 8.49984V16.4998C28 17.5358 27.4477 18.3877 26.75 19.0194C26.0518 19.6515 25.1033 20.1668 24.0104 20.5767C21.8206 21.3978 18.9399 21.8332 16 21.8332C13.0601 21.8332 10.1794 21.3978 7.98958 20.5767C6.89672 20.1668 5.94818 19.6515 5.25 19.0194C4.55232 18.3877 4 17.5358 4 16.4998Z" fill="#004D71"/>
<path d="M4 24.4998V16.4998C4 15.7635 4.59695 15.1665 5.33333 15.1665C6.06971 15.1665 6.66667 15.7635 6.66667 16.4998V24.4998L6.67318 24.5493C6.69299 24.6282 6.7678 24.7947 7.04036 25.0415C7.40417 25.3709 8.01832 25.739 8.92578 26.0793C10.7367 26.7583 13.282 27.1665 16 27.1665L17.0104 27.1483C19.3431 27.061 21.4898 26.6734 23.0742 26.0793C23.9817 25.739 24.5958 25.3709 24.9596 25.0415C25.2322 24.7947 25.307 24.6282 25.3268 24.5493L25.3333 24.4998V16.4998C25.3333 15.7635 25.9303 15.1665 26.6667 15.1665C27.403 15.1665 28 15.7635 28 16.4998V24.4998C28 25.5358 27.4477 26.3877 26.75 27.0194C26.0518 27.6515 25.1033 28.1668 24.0104 28.5767C21.9575 29.3465 19.2976 29.7771 16.5508 29.828L16 29.8332C13.0601 29.8332 10.1794 29.3978 7.98958 28.5767C6.89672 28.1668 5.94818 27.6515 5.25 27.0194C4.55232 26.3877 4 25.5358 4 24.4998Z" fill="#004D71"/>
</g>
<defs>
<clipPath id="clip0_1349_2487">
<rect width="32" height="32" fill="white" transform="translate(0 0.5)"/>
</clipPath>
</defs>
</svg>
