<svg width="32" height="33" viewBox="0 0 32 33" fill="none" xmlns="http://www.w3.org/2000/svg">
<g clip-path="url(#clip0_1349_2480)">
<path d="M26.6667 16.4998C26.6667 13.6709 25.5434 10.9573 23.543 8.95687C21.5426 6.95648 18.829 5.83317 16 5.83317C13.171 5.83317 10.4574 6.95648 8.45705 8.95687C6.45666 10.9573 5.33335 13.6709 5.33335 16.4998C5.33335 17.9006 5.6098 19.2877 6.14585 20.5819C6.6819 21.8759 7.46663 23.0524 8.45705 24.0428C9.44748 25.0332 10.624 25.818 11.918 26.354C13.2121 26.8901 14.5993 27.1665 16 27.1665L16.5248 27.1535C17.7463 27.0933 18.9498 26.823 20.0821 26.354C21.3761 25.818 22.5526 25.0332 23.543 24.0428C24.5334 23.0524 25.3181 21.8759 25.8542 20.5819C26.3902 19.2877 26.6667 17.9006 26.6667 16.4998ZM29.3334 16.4998C29.3334 18.2508 28.9891 19.985 28.319 21.6027C27.649 23.2203 26.6665 24.6901 25.4284 25.9282C24.1903 27.1663 22.7205 28.1488 21.1029 28.8188C19.6876 29.4051 18.183 29.7423 16.6563 29.8175L16 29.8332C14.2491 29.8332 12.5148 29.4889 10.8972 28.8188C9.27954 28.1488 7.80971 27.1663 6.57164 25.9282C5.33356 24.6901 4.35107 23.2203 3.68101 21.6027C3.01095 19.985 2.66669 18.2508 2.66669 16.4998C2.66669 12.9636 4.07115 9.57194 6.57164 7.07145C9.07212 4.57097 12.4638 3.1665 16 3.1665C19.5362 3.1665 22.9279 4.57097 25.4284 7.07145C27.9289 9.57194 29.3334 12.9636 29.3334 16.4998Z" fill="#004D71"/>
<path d="M4.79999 12.5H27.2" stroke="#004D71" stroke-width="2" stroke-linecap="round" stroke-linejoin="round"/>
<path d="M4.79999 20.5H27.2" stroke="#004D71" stroke-width="2" stroke-linecap="round" stroke-linejoin="round"/>
<path d="M15.3334 4.5C13.0871 8.09948 11.8963 12.2572 11.8963 16.5C11.8963 20.7428 13.0871 24.9005 15.3334 28.5" stroke="#004D71" stroke-width="2" stroke-linecap="round" stroke-linejoin="round"/>
<path d="M16.6667 4.5C18.9129 8.09948 20.1037 12.2572 20.1037 16.5C20.1037 20.7428 18.9129 24.9005 16.6667 28.5" stroke="#004D71" stroke-width="2" stroke-linecap="round" stroke-linejoin="round"/>
</g>
<defs>
<clipPath id="clip0_1349_2480">
<rect width="32" height="32" fill="white" transform="translate(0 0.5)"/>
</clipPath>
</defs>
</svg>
