<svg width="22" height="22" viewBox="0 0 22 22" fill="none" xmlns="http://www.w3.org/2000/svg">
<g clip-path="url(#clip0_1357_1240)">
<path d="M9.85964 5.65561L16.3405 12.1374L9.76522 18.7135C9.46087 19.0179 9.05913 19.2054 8.63039 19.2434L8.46906 19.2498H3.67214C3.44405 19.2498 3.22399 19.1656 3.05415 19.0133C2.88431 18.8611 2.77665 18.6515 2.75181 18.4248L2.74631 18.3239V13.527C2.74641 13.0966 2.89796 12.6799 3.17439 12.35L3.28439 12.2309L9.85964 5.65561ZM12.738 2.77728C13.0624 2.45282 13.4967 2.26181 13.9551 2.24195C14.4135 2.2221 14.8626 2.37484 15.2139 2.67003L15.3303 2.77728L19.2197 6.66669C19.5439 6.99106 19.7348 7.42516 19.7546 7.88334C19.7745 8.34151 19.6219 8.79049 19.327 9.14169L19.2197 9.25903L17.6376 10.8412L11.1567 4.35944L12.738 2.77728Z" fill="#292929"/>
</g>
<defs>
<clipPath id="clip0_1357_1240">
<rect width="22" height="22" fill="white"/>
</clipPath>
</defs>
</svg>


