<svg width="23" height="22" viewBox="0 0 23 22" fill="none" xmlns="http://www.w3.org/2000/svg">
<path d="M10.2597 5.65561L16.7405 12.1374L10.1653 18.7135C9.8609 19.0179 9.45916 19.2054 9.03042 19.2434L8.86909 19.2498H4.07217C3.84408 19.2498 3.62402 19.1656 3.45418 19.0133C3.28434 18.8611 3.17668 18.6515 3.15184 18.4248L3.14634 18.3239V13.527C3.14644 13.0966 3.29798 12.6799 3.57442 12.35L3.68442 12.2309L10.2597 5.65561ZM13.138 2.77728C13.4624 2.45282 13.8967 2.26181 14.3551 2.24195C14.8135 2.2221 15.2627 2.37484 15.6139 2.67003L15.7303 2.77728L19.6198 6.66669C19.9439 6.99106 20.1348 7.42516 20.1547 7.88334C20.1745 8.34151 20.0219 8.79049 19.727 9.14169L19.6198 9.25903L18.0376 10.8412L11.5568 4.35944L13.138 2.77728Z" fill="white"/>
</svg>
