<svg width="24" height="24" viewBox="0 0 24 24" fill="none" xmlns="http://www.w3.org/2000/svg">
<path fill-rule="evenodd" clip-rule="evenodd" d="M13.1079 15.429C12.8141 15.7396 12.4155 15.9141 12 15.9141C11.5845 15.9141 11.1859 15.7396 10.8921 15.429L6.45882 10.7421C6.23963 10.5103 6.09041 10.215 6.03002 9.8935C5.96963 9.57202 6.00079 9.23882 6.11957 8.93607C6.23834 8.63332 6.43939 8.37462 6.69727 8.19269C6.95516 8.01077 7.25829 7.91381 7.56831 7.91406H16.4317C16.7417 7.91381 17.0448 8.01077 17.3027 8.19269C17.5606 8.37462 17.7617 8.63332 17.8804 8.93607C17.9992 9.23882 18.0304 9.57202 17.97 9.8935C17.9096 10.215 17.7604 10.5103 17.5412 10.7421L13.1079 15.429Z" fill="#292929"/>
</svg>
