<svg width="32" height="33" viewBox="0 0 32 33" fill="none" xmlns="http://www.w3.org/2000/svg">
<g clip-path="url(#clip0_1349_2502)">
<path d="M17.3334 11.1667V8.5C17.3334 8.14638 17.1928 7.80734 16.9427 7.55729C16.7239 7.33843 16.4369 7.20343 16.1315 7.17318L16 7.16667H6.66669C6.31306 7.16667 5.97403 7.30724 5.72398 7.55729C5.47393 7.80734 5.33335 8.14638 5.33335 8.5V24.5C5.33335 24.8536 5.47393 25.1927 5.72398 25.4427C5.97403 25.6928 6.31307 25.8333 6.66669 25.8333H16C16.3536 25.8333 16.6927 25.6928 16.9427 25.4427C17.1928 25.1927 17.3334 24.8536 17.3334 24.5V21.8333C17.3334 21.097 17.9303 20.5 18.6667 20.5C19.4031 20.5 20 21.097 20 21.8333V24.5C20 25.5609 19.5783 26.578 18.8281 27.3281C18.078 28.0783 17.0609 28.5 16 28.5H6.66669C5.60582 28.5 4.58871 28.0783 3.83856 27.3281C3.08842 26.578 2.66669 25.5609 2.66669 24.5V8.5C2.66669 7.43913 3.08842 6.42202 3.83856 5.67188C4.58871 4.92173 5.60582 4.5 6.66669 4.5H16C17.0609 4.5 18.078 4.92173 18.8281 5.67188C19.5783 6.42202 20 7.43913 20 8.5V11.1667C20 11.903 19.4031 12.5 18.6667 12.5C17.9303 12.5 17.3334 11.903 17.3334 11.1667Z" fill="#FFFFFF"/>
<path d="M23.0573 11.5575C23.578 11.0368 24.422 11.0368 24.9427 11.5575L28.9427 15.5575C29.3241 15.9388 29.4382 16.5124 29.2318 17.0106C29.0254 17.5088 28.5392 17.8336 28 17.8336H12C11.2636 17.8336 10.6667 17.2366 10.6667 16.5002C10.6667 15.7638 11.2636 15.1669 12 15.1669H24.7813L23.0573 13.4429C22.5366 12.9222 22.5366 12.0782 23.0573 11.5575Z" fill="#FFFFFF"/>
<path d="M27.0573 15.5575C27.578 15.0368 28.422 15.0368 28.9427 15.5575C29.4634 16.0782 29.4634 16.9222 28.9427 17.4429L24.9427 21.4429C24.422 21.9636 23.578 21.9636 23.0573 21.4429C22.5366 20.9222 22.5366 20.0782 23.0573 19.5575L27.0573 15.5575Z" fill="#FFFFFF"/>
</g>
<defs>
<clipPath id="clip0_1349_2502">
<rect width="32" height="32" fill="white" transform="translate(0 0.5)"/>
</clipPath>
</defs>
</svg>
