<svg width="16" height="16" viewBox="0 0 16 16" fill="none" xmlns="http://www.w3.org/2000/svg">
<g clip-path="url(#clip0_2313_3261)">
<path d="M6.66699 8.00033C6.66699 7.6467 6.80757 7.30767 7.05762 7.05762C7.30767 6.80757 7.6467 6.66699 8.00033 6.66699C8.35395 6.66699 8.69299 6.80757 8.94303 7.05762C9.19308 7.30767 9.33366 7.6467 9.33366 8.00033C9.33366 8.35395 9.19308 8.69299 8.94303 8.94303C8.69299 9.19308 8.35395 9.33366 8.00033 9.33366C7.6467 9.33366 7.30767 9.19308 7.05762 8.94303C6.80757 8.69299 6.66699 8.35395 6.66699 8.00033Z" fill="#004D71"/>
<path d="M6.66699 12.6663C6.66699 12.3127 6.80757 11.9737 7.05762 11.7236C7.30767 11.4736 7.6467 11.333 8.00033 11.333C8.35395 11.333 8.69298 11.4736 8.94303 11.7236C9.19308 11.9737 9.33366 12.3127 9.33366 12.6663C9.33366 13.02 9.19308 13.359 8.94303 13.609C8.69298 13.8591 8.35395 13.9997 8.00033 13.9997C7.6467 13.9997 7.30767 13.8591 7.05762 13.609C6.80757 13.359 6.66699 13.02 6.66699 12.6663Z" fill="#004D71"/>
<path d="M6.66699 3.33333C6.66699 2.97971 6.80757 2.64067 7.05762 2.39062C7.30767 2.14058 7.6467 2 8.00033 2L8.13184 2.00651C8.43717 2.03676 8.72418 2.17177 8.94303 2.39062C9.19308 2.64067 9.33366 2.97971 9.33366 3.33333C9.33366 3.68696 9.19308 4.02599 8.94303 4.27604C8.69299 4.52609 8.35395 4.66667 8.00033 4.66667C7.6467 4.66667 7.30767 4.52609 7.05762 4.27604C6.80757 4.02599 6.66699 3.68696 6.66699 3.33333Z" fill="#004D71"/>
</g>
<defs>
<clipPath id="clip0_2313_3261">
<rect width="16" height="16" fill="white"/>
</clipPath>
</defs>
</svg>
