<svg width="24" height="24" viewBox="0 0 24 24" fill="none" xmlns="http://www.w3.org/2000/svg">
<g clip-path="url(#clip0_1349_1108)">
<path fill-rule="evenodd" clip-rule="evenodd" d="M5.708 13.3502C6.333 11.4302 7.458 8.97121 9.465 6.96421C13.399 3.03021 19.117 2.44921 19.262 2.43421C19.4459 2.41578 19.6313 2.4484 19.7978 2.5285C19.9644 2.60859 20.1056 2.73306 20.206 2.88821C20.414 3.20121 21.586 5.17121 20.015 7.55121C19.9328 7.6734 19.8405 7.78848 19.739 7.89521C19.7523 8.01934 19.7421 8.14485 19.709 8.26521C19.519 8.95421 19.275 9.67721 18.959 10.4002C18.408 11.6632 17.631 12.9402 16.536 14.0362C14.486 16.0862 11.794 17.0272 9.692 17.4662C8.74184 17.6643 7.77812 17.7907 6.809 17.8442C6.778 18.0902 6.5 20.5702 6.5 21.0002C6.5 21.2654 6.39464 21.5198 6.20711 21.7073C6.01957 21.8949 5.76522 22.0002 5.5 22.0002C5.23478 22.0002 4.98043 21.8949 4.79289 21.7073C4.60536 21.5198 4.5 21.2654 4.5 21.0002C4.5 20.4292 4.616 19.3302 4.721 18.4402C4.926 16.7082 5.167 15.0132 5.708 13.3502ZM18.345 6.45021C18.872 5.65021 18.865 4.97021 18.76 4.53021C17.233 4.80521 13.541 5.71621 10.879 8.37921C9.175 10.0822 8.179 12.2192 7.61 13.9692C7.41217 14.5765 7.24726 15.1941 7.116 15.8192C7.84412 15.7614 8.56788 15.6579 9.283 15.5092C11.203 15.1072 13.462 14.2812 15.121 12.6212C15.971 11.7712 16.605 10.7642 17.075 9.71621C16.099 10.2362 15.057 10.7022 14.316 10.9492C14.0643 11.033 13.7896 11.0134 13.5524 10.8947C13.3152 10.776 13.1348 10.5679 13.051 10.3162C12.9672 10.0645 12.9868 9.78985 13.1055 9.55261C13.2242 9.31538 13.4323 9.13502 13.684 9.05121C14.358 8.82621 15.442 8.33821 16.438 7.78621C16.932 7.51221 17.384 7.23321 17.739 6.97821C18.123 6.70221 18.299 6.51921 18.345 6.45021Z" fill="#429DFF"/>
</g>
<defs>
<clipPath id="clip0_1349_1108">
<rect width="24" height="24" fill="white"/>
</clipPath>
</defs>
</svg>
