<svg width="32" height="33" viewBox="0 0 32 33" fill="none" xmlns="http://www.w3.org/2000/svg">
<g clip-path="url(#clip0_1349_2476)">
<path d="M16.3958 3.18604C17.3114 3.27705 18.1719 3.68211 18.8281 4.33838C19.3715 4.88173 19.7392 5.56578 19.9024 6.30452C21.3656 7.12671 22.6172 8.28496 23.5521 9.68734C24.6258 11.298 25.2413 13.1704 25.332 15.104C25.333 15.1248 25.3333 15.1457 25.3333 15.1665V19.0675C25.4154 19.667 25.6303 20.2408 25.9662 20.7446C26.3135 21.2657 26.7793 21.6978 27.3242 22.0063C27.8509 22.3048 28.11 22.921 27.9557 23.5063C27.8014 24.0918 27.2722 24.4998 26.6667 24.4998H5.33335C4.72787 24.4998 4.19863 24.0918 4.04428 23.5063C3.89004 22.921 4.14917 22.3048 4.67579 22.0063C5.22073 21.6978 5.68649 21.2657 6.03387 20.7446C6.36977 20.2408 6.58467 19.667 6.66668 19.0675V15.1665C6.66668 15.1457 6.667 15.1248 6.66798 15.104C6.75874 13.1704 7.37418 11.298 8.44793 9.68734C9.38264 8.28528 10.6336 7.12667 12.0964 6.30452C12.2595 5.56568 12.6285 4.8818 13.1719 4.33838C13.922 3.58823 14.9391 3.1665 16 3.1665L16.3958 3.18604ZM16 5.83317C15.6464 5.83317 15.3074 5.97375 15.0573 6.2238C14.8073 6.47384 14.6667 6.81288 14.6667 7.1665L14.6524 7.35791C14.5889 7.79583 14.3112 8.17946 13.9037 8.37223C12.5912 8.99284 11.472 9.95853 10.6667 11.1665C9.86451 12.3698 9.40421 13.7679 9.33335 15.2121V19.1665C9.33335 19.22 9.33066 19.2735 9.32423 19.3267C9.2172 20.2109 8.93265 21.0626 8.4922 21.8332H23.5078C23.0674 21.0626 22.7828 20.2109 22.6758 19.3267C22.6694 19.2735 22.6667 19.22 22.6667 19.1665V15.2121C22.5958 13.7679 22.1355 12.3698 21.3333 11.1665C20.528 9.95853 19.4088 8.99284 18.0964 8.37223C17.6303 8.1518 17.3333 7.68204 17.3333 7.1665C17.3333 6.81288 17.1928 6.47384 16.9427 6.2238C16.6927 5.97375 16.3536 5.83317 16 5.83317Z" fill="#FFFFFF"/>
<path d="M10.6667 24.5002V23.1668C10.6667 22.4304 11.2636 21.8335 12 21.8335C12.7364 21.8335 13.3334 22.4304 13.3334 23.1668V24.5002C13.3334 25.2074 13.6145 25.8855 14.1146 26.3856C14.6147 26.8857 15.2928 27.1668 16 27.1668L16.263 27.1538C16.8737 27.0933 17.4477 26.8233 17.8854 26.3856C18.3855 25.8855 18.6667 25.2074 18.6667 24.5002V23.1668C18.6667 22.4304 19.2636 21.8335 20 21.8335C20.7364 21.8335 21.3334 22.4304 21.3334 23.1668V24.5002C21.3334 25.9147 20.771 27.2708 19.7709 28.271C18.8331 29.2087 17.5826 29.7616 16.2643 29.827L16 29.8335C14.5855 29.8335 13.2294 29.2712 12.2292 28.271C11.229 27.2708 10.6667 25.9147 10.6667 24.5002Z" fill="#FFFFFF"/>
</g>
<defs>
<clipPath id="clip0_1349_2476">
<rect width="32" height="32" fill="white" transform="translate(0 0.5)"/>
</clipPath>
</defs>
</svg>
