<svg width="16" height="16" viewBox="0 0 16 16" fill="none" xmlns="http://www.w3.org/2000/svg">
<g clip-path="url(#clip0_2130_1548)">
<path d="M5.33333 2V4.33333C5.33333 4.59855 5.43869 4.8529 5.62623 5.04044C5.81376 5.22798 6.06812 5.33333 6.33333 5.33333H9C9.26522 5.33333 9.51957 5.22798 9.70711 5.04044C9.89464 4.8529 10 4.59855 10 4.33333V2H10.3907C10.7443 2.00008 11.0833 2.1406 11.3333 2.39067L12.9427 4C13.1927 4.24999 13.3333 4.58907 13.3333 4.94267V12.6667C13.3333 13.0203 13.1929 13.3594 12.9428 13.6095C12.6928 13.8595 12.3536 14 12 14H10.6667V9.33333C10.6667 8.97971 10.5262 8.64057 10.2761 8.39052C10.0261 8.14048 9.68695 8 9.33333 8H6C5.64638 8 5.30724 8.14048 5.05719 8.39052C4.80714 8.64057 4.66667 8.97971 4.66667 9.33333V14H3.33333C2.97971 14 2.64057 13.8595 2.39052 13.6095C2.14048 13.3594 2 13.0203 2 12.6667V3.33333C2 2.97971 2.14048 2.64057 2.39052 2.39052C2.64057 2.14048 2.97971 2 3.33333 2H5.33333ZM9.33333 9.33333V14H6V9.33333H9.33333ZM8.66667 2V4H6.66667V2H8.66667Z" fill="#9E7F54"/>
</g>
<defs>
<clipPath id="clip0_2130_1548">
<rect width="16" height="16" fill="white"/>
</clipPath>
</defs>
</svg>
