<svg width="12" height="12" viewBox="0 0 12 12" fill="none" xmlns="http://www.w3.org/2000/svg">
<g clip-path="url(#clip0_1633_1874)">
<path d="M7.3965 1.5C7.56971 1.50012 7.73755 1.56018 7.8715 1.67L7.9265 1.72L8.7075 2.5H10C10.2523 2.49992 10.4953 2.5952 10.6803 2.76675C10.8653 2.93829 10.9786 3.17342 10.9975 3.425L11 3.5V9.5C11.0001 9.75229 10.9048 9.99528 10.7333 10.1803C10.5617 10.3653 10.3266 10.4786 10.075 10.4975L10 10.5H2C1.74771 10.5001 1.50472 10.4048 1.31973 10.2333C1.13474 10.0617 1.02142 9.82658 1.0025 9.575L1 9.5V3.5C0.99992 3.24771 1.0952 3.00472 1.26675 2.81973C1.43829 2.63474 1.67342 2.52142 1.925 2.5025L2 2.5H3.293L4.073 1.72C4.19555 1.59721 4.35687 1.5207 4.5295 1.5035L4.6035 1.5H7.3965ZM6 3.75C5.33696 3.75 4.70107 4.01339 4.23223 4.48223C3.76339 4.95107 3.5 5.58696 3.5 6.25C3.5 6.91304 3.76339 7.54893 4.23223 8.01777C4.70107 8.48661 5.33696 8.75 6 8.75C6.66304 8.75 7.29893 8.48661 7.76777 8.01777C8.23661 7.54893 8.5 6.91304 8.5 6.25C8.5 5.58696 8.23661 4.95107 7.76777 4.48223C7.29893 4.01339 6.66304 3.75 6 3.75ZM6 4.75C6.19698 4.75 6.39204 4.7888 6.57403 4.86418C6.75601 4.93956 6.92137 5.05005 7.06066 5.18934C7.19995 5.32863 7.31044 5.49399 7.38582 5.67597C7.4612 5.85796 7.5 6.05302 7.5 6.25C7.5 6.44698 7.4612 6.64204 7.38582 6.82403C7.31044 7.00601 7.19995 7.17137 7.06066 7.31066C6.92137 7.44995 6.75601 7.56044 6.57403 7.63582C6.39204 7.7112 6.19698 7.75 6 7.75C5.60218 7.75 5.22064 7.59196 4.93934 7.31066C4.65804 7.02936 4.5 6.64782 4.5 6.25C4.5 5.85218 4.65804 5.47064 4.93934 5.18934C5.22064 4.90804 5.60218 4.75 6 4.75Z" fill="#004D71"/>
</g>
<defs>
<clipPath id="clip0_1633_1874">
<rect width="12" height="12" fill="white"/>
</clipPath>
</defs>
</svg>
