<svg width="20" height="20" viewBox="0 0 20 20" fill="none" xmlns="http://www.w3.org/2000/svg">
<path fill-rule="evenodd" clip-rule="evenodd" d="M8.7507 1.66699C7.62119 1.66709 6.50809 1.9373 5.50425 2.45507C4.50041 2.97285 3.63494 3.72317 2.98006 4.64345C2.32518 5.56373 1.89987 6.62728 1.73962 7.74536C1.57937 8.86344 1.68882 10.0036 2.05885 11.0708C2.42887 12.138 3.04874 13.1012 3.86673 13.8801C4.68472 14.659 5.67712 15.231 6.76113 15.5483C7.84514 15.8657 8.98932 15.9192 10.0982 15.7044C11.2071 15.4896 12.2486 15.0128 13.1357 14.3137L16.179 17.357C16.3362 17.5088 16.5467 17.5928 16.7652 17.5909C16.9837 17.589 17.1927 17.5013 17.3472 17.3468C17.5017 17.1923 17.5894 16.9833 17.5913 16.7648C17.5932 16.5463 17.5092 16.3358 17.3574 16.1787L14.314 13.1353C15.1374 12.0908 15.65 10.8357 15.7933 9.51343C15.9366 8.1912 15.7047 6.85534 15.1242 5.65874C14.5437 4.46213 13.6381 3.45312 12.511 2.74718C11.3838 2.04125 10.0807 1.6669 8.7507 1.66699ZM3.33403 8.75033C3.33403 7.31374 3.90472 5.93599 4.92054 4.92016C5.93636 3.90434 7.31411 3.33366 8.7507 3.33366C10.1873 3.33366 11.565 3.90434 12.5809 4.92016C13.5967 5.93599 14.1674 7.31374 14.1674 8.75033C14.1674 10.1869 13.5967 11.5647 12.5809 12.5805C11.565 13.5963 10.1873 14.167 8.7507 14.167C7.31411 14.167 5.93636 13.5963 4.92054 12.5805C3.90472 11.5647 3.33403 10.1869 3.33403 8.75033Z" fill="#004D71"/>
</svg>
