<svg width="32" height="33" viewBox="0 0 32 33" fill="none" xmlns="http://www.w3.org/2000/svg">
<g clip-path="url(#clip0_1349_2492)">
<path d="M2.66669 11.4564C2.66669 9.89966 3.51238 8.47249 4.86721 7.71159L13.8672 2.4043L13.8998 2.38607C14.5563 2.02408 15.2946 1.83398 16.0443 1.83398C16.7939 1.83403 17.5311 2.02416 18.1875 2.38607C18.1987 2.39223 18.2104 2.39781 18.2214 2.4043L27.2214 7.71159C27.3013 7.75875 27.3722 7.81632 27.4388 7.87695C27.9781 8.24112 28.4296 8.72245 28.7565 9.28841C29.1373 9.94776 29.3367 10.6964 29.3334 11.4577V21.1699C29.3332 22.7118 28.502 24.1264 27.168 24.8926L18.1693 30.5866C18.1461 30.6013 18.1217 30.615 18.0977 30.6283C17.5353 30.937 16.9128 31.1179 16.2748 31.1582L16 31.1673C15.2667 31.1673 14.5452 30.9812 13.9024 30.6283C13.8783 30.615 13.8539 30.6013 13.8307 30.5866L4.83075 24.8939V24.8926C4.18817 24.5245 3.64985 23.9986 3.27085 23.3613C2.87723 22.6992 2.66831 21.9428 2.66669 21.1725V11.4564ZM5.33335 21.1673L5.34898 21.3848C5.37852 21.6007 5.45042 21.8094 5.56252 21.998C5.67467 22.1867 5.82309 22.3507 5.99872 22.4798L6.18361 22.597L6.25653 22.64L15.2031 28.2988C15.4485 28.43 15.7216 28.5007 16 28.5006L16.2123 28.4863C16.4162 28.4605 16.6133 28.3961 16.7956 28.2988L25.7435 22.64L25.8138 22.5983C26.3445 22.3066 26.6665 21.7577 26.6667 21.1699V11.4486C26.6684 11.1585 26.593 10.8729 26.4479 10.6217C26.3028 10.3705 26.0933 10.1623 25.8412 10.0189C25.7658 9.97599 25.6968 9.92533 25.6328 9.87044L16.8906 4.7168C16.6308 4.57553 16.3401 4.5007 16.0443 4.50065C15.7499 4.50065 15.4594 4.57302 15.2005 4.71289L6.22137 10.0085C6.20989 10.0152 6.19791 10.0216 6.18622 10.028C5.65473 10.3201 5.33335 10.8691 5.33335 11.4564V21.1673Z" fill="#FFFFFF"/>
<path d="M18.6667 16.4998C18.6667 15.7926 18.3855 15.1145 17.8854 14.6144C17.3853 14.1143 16.7073 13.8332 16 13.8332C15.2928 13.8332 14.6147 14.1143 14.1146 14.6144C13.6145 15.1145 13.3334 15.7926 13.3334 16.4998C13.3334 17.2071 13.6145 17.8852 14.1146 18.3853C14.6147 18.8854 15.2928 19.1665 16 19.1665C16.7073 19.1665 17.3853 18.8854 17.8854 18.3853C18.3855 17.8852 18.6667 17.2071 18.6667 16.4998ZM21.3334 16.4998C21.3334 17.9143 20.771 19.2705 19.7709 20.2707C18.7707 21.2709 17.4145 21.8332 16 21.8332C14.5855 21.8332 13.2294 21.2709 12.2292 20.2707C11.229 19.2705 10.6667 17.9143 10.6667 16.4998C10.6667 15.0854 11.229 13.7292 12.2292 12.729C13.2294 11.7288 14.5855 11.1665 16 11.1665C17.4145 11.1665 18.7707 11.7288 19.7709 12.729C20.771 13.7292 21.3334 15.0854 21.3334 16.4998Z" fill="#FFFFFF"/>
</g>
<defs>
<clipPath id="clip0_1349_2492">
<rect width="32" height="32" fill="white" transform="translate(0 0.5)"/>
</clipPath>
</defs>
</svg>
