<svg width="24" height="24" viewBox="0 0 24 24" fill="none" xmlns="http://www.w3.org/2000/svg">
<g clip-path="url(#clip0_1719_4323)">
<path d="M11.9941 1.00195C12.3746 1.00208 12.7222 1.21833 12.8906 1.55957L15.7431 7.34082L22.123 8.26562C22.4999 8.32025 22.813 8.58407 22.9306 8.94629C23.0482 9.30842 22.9505 9.70607 22.6777 9.97168L18.0547 14.4717L19.1445 20.8262C19.2088 21.2014 19.0542 21.5811 18.7461 21.8047C18.4379 22.0282 18.0292 22.0574 17.6924 21.8799L11.999 18.8799L6.29393 21.8799C5.95703 22.057 5.54912 22.0274 5.24119 21.8037C4.93334 21.58 4.77856 21.2012 4.84276 20.8262L5.9326 14.4717L1.31053 9.97168C1.03768 9.70609 0.939098 9.30845 1.05662 8.94629C1.17423 8.58413 1.48742 8.3203 1.86424 8.26562L8.24315 7.34082L11.0967 1.55957C11.2651 1.21823 11.6135 1.00195 11.9941 1.00195ZM9.80467 8.69727C9.65895 8.99253 9.37662 9.19691 9.05076 9.24414L4.15819 9.95312L7.70506 13.4053C7.94109 13.635 8.04884 13.9664 7.99315 14.291L7.15623 19.166L11.5351 16.8652L11.6474 16.8145C11.9134 16.714 12.2118 16.731 12.4668 16.8652L16.8291 19.1641L15.9941 14.291C15.9384 13.9664 16.0462 13.635 16.2822 13.4053L19.8281 9.95312L14.9365 9.24414C14.6106 9.19691 14.3283 8.99253 14.1826 8.69727L11.9931 4.26172L9.80467 8.69727Z" fill="#004D71"/>
</g>
<defs>
<clipPath id="clip0_1719_4323">
<rect width="24" height="24" fill="white"/>
</clipPath>
</defs>
</svg>
