<svg width="16" height="16" viewBox="0 0 16 16" fill="none" xmlns="http://www.w3.org/2000/svg">
<g clip-path="url(#clip0_1719_3540)">
<path fill-rule="evenodd" clip-rule="evenodd" d="M9.52 1.33398C9.79984 1.33406 10.0726 1.42217 10.2995 1.58586C10.5265 1.74954 10.6962 1.98048 10.7847 2.24598L11.1467 3.33398H13.3333C13.5101 3.33398 13.6797 3.40422 13.8047 3.52925C13.9298 3.65427 14 3.82384 14 4.00065C14 4.17746 13.9298 4.34703 13.8047 4.47206C13.6797 4.59708 13.5101 4.66732 13.3333 4.66732L13.3313 4.71465L12.7533 12.81C12.7173 13.3144 12.4915 13.7864 12.1214 14.131C11.7513 14.4756 11.2644 14.6673 10.7587 14.6673H5.24133C4.73564 14.6673 4.24874 14.4756 3.87864 14.131C3.50855 13.7864 3.28274 13.3144 3.24667 12.81L2.66867 4.71398C2.66746 4.69846 2.66679 4.68289 2.66667 4.66732C2.48986 4.66732 2.32029 4.59708 2.19526 4.47206C2.07024 4.34703 2 4.17746 2 4.00065C2 3.82384 2.07024 3.65427 2.19526 3.52925C2.32029 3.40422 2.48986 3.33398 2.66667 3.33398H4.85333L5.21533 2.24598C5.3038 1.98038 5.47362 1.74935 5.70073 1.58566C5.92784 1.42197 6.20071 1.33392 6.48067 1.33398H9.52ZM6 6.66732C5.83671 6.66734 5.67911 6.72729 5.55709 6.83579C5.43506 6.9443 5.3571 7.09382 5.338 7.25598L5.33333 7.33398V11.334C5.33352 11.5039 5.39859 11.6673 5.51523 11.7909C5.63188 11.9145 5.7913 11.9888 5.96093 11.9988C6.13056 12.0087 6.29759 11.9535 6.42789 11.8445C6.55819 11.7354 6.64193 11.5807 6.662 11.412L6.66667 11.334V7.33398C6.66667 7.15717 6.59643 6.9876 6.4714 6.86258C6.34638 6.73756 6.17681 6.66732 6 6.66732ZM10 6.66732C9.82319 6.66732 9.65362 6.73756 9.5286 6.86258C9.40357 6.9876 9.33333 7.15717 9.33333 7.33398V11.334C9.33333 11.5108 9.40357 11.6804 9.5286 11.8054C9.65362 11.9304 9.82319 12.0007 10 12.0007C10.1768 12.0007 10.3464 11.9304 10.4714 11.8054C10.5964 11.6804 10.6667 11.5108 10.6667 11.334V7.33398C10.6667 7.15717 10.5964 6.9876 10.4714 6.86258C10.3464 6.73756 10.1768 6.66732 10 6.66732ZM9.52 2.66732H6.48L6.258 3.33398H9.742L9.52 2.66732Z" fill="#F0423C"/>
</g>
<defs>
<clipPath id="clip0_1719_3540">
<rect width="16" height="16" fill="white"/>
</clipPath>
</defs>
</svg>
