<svg width="32" height="33" viewBox="0 0 32 33" fill="none" xmlns="http://www.w3.org/2000/svg">
<path fill-rule="evenodd" clip-rule="evenodd" d="M16 3.1665C8.63602 3.1665 2.66669 9.13584 2.66669 16.4998C2.66669 23.8638 8.63602 29.8332 16 29.8332C23.364 29.8332 29.3334 23.8638 29.3334 16.4998C29.3334 9.13584 23.364 3.1665 16 3.1665ZM11.3334 13.1665C11.3334 12.5537 11.4541 11.9468 11.6886 11.3806C11.9231 10.8145 12.2668 10.3 12.7002 9.86667C13.1335 9.43333 13.648 9.08959 14.2142 8.85507C14.7804 8.62054 15.3872 8.49984 16 8.49984C16.6129 8.49984 17.2197 8.62054 17.7859 8.85507C18.3521 9.08959 18.8665 9.43333 19.2999 9.86667C19.7332 10.3 20.0769 10.8145 20.3115 11.3806C20.546 11.9468 20.6667 12.5537 20.6667 13.1665C20.6667 14.4042 20.175 15.5912 19.2999 16.4663C18.4247 17.3415 17.2377 17.8332 16 17.8332C14.7623 17.8332 13.5754 17.3415 12.7002 16.4663C11.825 15.5912 11.3334 14.4042 11.3334 13.1665ZM24.344 23.1452C23.3459 24.4007 22.0771 25.4144 20.6322 26.1108C19.1874 26.8071 17.6039 27.168 16 27.1665C14.3961 27.168 12.8126 26.8071 11.3678 26.1108C9.92295 25.4144 8.65411 24.4007 7.65602 23.1452C9.81735 21.5945 12.7667 20.4998 16 20.4998C19.2334 20.4998 22.1827 21.5945 24.344 23.1452Z" fill="#A9ADAE"/>
</svg>
