<svg width="20" height="20" viewBox="0 0 20 20" fill="none" xmlns="http://www.w3.org/2000/svg">
<path fill-rule="evenodd" clip-rule="evenodd" d="M10 1.66699C5.39752 1.66699 1.66669 5.39783 1.66669 10.0003C1.66669 14.6028 5.39752 18.3337 10 18.3337C14.6025 18.3337 18.3334 14.6028 18.3334 10.0003C18.3334 5.39783 14.6025 1.66699 10 1.66699ZM7.08335 7.91699C7.08335 7.53397 7.1588 7.1547 7.30537 6.80083C7.45195 6.44697 7.66679 6.12543 7.93763 5.8546C8.20846 5.58376 8.52999 5.36892 8.88386 5.22234C9.23773 5.07577 9.617 5.00033 10 5.00033C10.383 5.00033 10.7623 5.07577 11.1162 5.22234C11.47 5.36892 11.7916 5.58376 12.0624 5.8546C12.3333 6.12543 12.5481 6.44697 12.6947 6.80083C12.8412 7.1547 12.9167 7.53397 12.9167 7.91699C12.9167 8.69054 12.6094 9.43241 12.0624 9.97939C11.5154 10.5264 10.7736 10.8337 10 10.8337C9.22647 10.8337 8.48461 10.5264 7.93763 9.97939C7.39065 9.43241 7.08335 8.69054 7.08335 7.91699ZM15.215 14.1537C14.5912 14.9383 13.7982 15.572 12.8952 16.0072C11.9921 16.4424 11.0024 16.6679 10 16.667C8.99759 16.6679 8.00791 16.4424 7.10488 16.0072C6.20185 15.572 5.40882 14.9383 4.78502 14.1537C6.13585 13.1845 7.97919 12.5003 10 12.5003C12.0209 12.5003 13.8642 13.1845 15.215 14.1537Z" fill="#DCDCDC"/>
</svg>
